<svg viewBox="0 0 500 500" xmlns="http://www.w3.org/2000/svg">
  <defs>
    <linearGradient id="prefix__a" gradientUnits="userSpaceOnUse" x1="235.378" y1=".003" x2="235.378" y2="506.951">
      <stop offset="0" stop-color="#6364FF"></stop>
      <stop offset="1" stop-color="#563ACC"></stop>
    </linearGradient>
  </defs>
  <g transform="matrix(0.977564, 0, 0, 0.977564, 15.399644, 0.000016)">
    <path fill="url(#prefix__a)" d="M478.064 113.237c-7.393-54.954-55.29-98.266-112.071-106.656C356.413 5.163 320.121 0 236.045 0h-.628c-84.1 0-102.141 5.163-111.72 6.581C68.498 14.739 18.088 53.655 5.859 109.261c-5.883 27.385-6.51 57.747-5.416 85.596 1.555 39.939 1.859 79.806 5.487 119.581a562.694 562.694 0 0013.089 78.437c11.625 47.654 58.687 87.313 104.793 103.494a281.073 281.073 0 00153.316 8.09 224.345 224.345 0 0016.577-4.533c12.369-3.928 26.856-8.321 37.506-16.042.146-.107.265-.247.348-.407.086-.161.134-.339.14-.521v-38.543a1.187 1.187 0 00-.119-.491 1.122 1.122 0 00-.773-.604 1.139 1.139 0 00-.503 0 424.932 424.932 0 01-99.491 11.626c-57.664 0-73.171-27.361-77.611-38.752a120.09 120.09 0 01-6.745-30.546 1.123 1.123 0 01.877-1.152c.173-.035.349-.032.518.012a416.876 416.876 0 0097.864 11.623c7.929 0 15.834 0 23.763-.211 33.155-.928 68.103-2.626 100.722-8.997.815-.16 1.63-.3 2.326-.508 51.454-9.883 100.422-40.894 105.397-119.42.185-3.093.651-32.385.651-35.591.022-10.903 3.51-77.343-.511-118.165z"></path>
    <path fill="#fff" transform="matrix(0.987796, 0.155752, -0.155752, 0.987796, 32.903632, -32.280038)" d="M 161.06 86.81 L 161.06 252.213 C 155.573 250.274 149.673 249.206 143.522 249.206 C 114.466 249.206 90.91 272.763 90.91 301.818 C 90.91 330.875 114.466 354.431 143.522 354.431 C 172.578 354.431 196.134 330.875 196.134 301.818 L 196.134 148.543 L 318.895 113.468 L 318.895 208.369 C 313.408 206.43 307.508 205.363 301.357 205.363 C 272.301 205.363 248.746 228.919 248.746 257.976 C 248.746 287.031 272.301 310.587 301.357 310.587 C 330.414 310.587 353.97 287.031 353.97 257.976 L 353.97 33.224 L 161.06 86.81 Z"></path>
  </g>
</svg>
