<svg xmlns="http://www.w3.org/2000/svg" xmlns:xlink="http://www.w3.org/1999/xlink" width="79" height="79" viewBox="0 0 79 75">
  <symbol id="logo-symbol-icon">
    <path fill="currentColor" transform="matrix(0.2385, 0, 0, 0.2385, -18.20932, -24.418713)" d="M 386.223 170.625 C 381.657 136.687 352.078 109.94 317.012 104.758 C 311.095 103.882 288.683 100.694 236.761 100.694 L 236.374 100.694 C 184.436 100.694 173.296 103.882 167.379 104.758 C 133.291 109.796 102.16 133.83 94.607 168.169 C 90.974 185.081 90.587 203.831 91.263 221.031 C 92.222 245.694 92.41 270.316 94.651 294.878 C 96.2 311.197 98.901 327.383 102.734 343.318 C 109.914 372.748 138.978 397.239 167.451 407.233 C 197.936 417.652 230.72 419.382 262.132 412.228 C 265.579 411.426 268.995 410.492 272.37 409.429 C 280.009 407.003 288.956 404.29 295.532 399.521 C 295.622 399.456 295.695 399.37 295.747 399.271 C 295.801 399.172 295.83 399.061 295.834 398.949 L 295.834 375.147 C 295.831 375.041 295.806 374.937 295.76 374.843 C 295.667 374.652 295.491 374.514 295.282 374.47 C 295.18 374.447 295.075 374.447 294.972 374.47 C 274.846 379.276 254.222 381.687 233.53 381.65 C 197.919 381.65 188.342 364.753 185.601 357.718 C 183.396 351.639 181.995 345.296 181.435 338.854 C 181.418 338.517 181.647 338.216 181.976 338.142 C 182.083 338.121 182.192 338.123 182.297 338.149 C 202.088 342.924 222.375 345.334 242.734 345.328 C 247.63 345.328 252.512 345.328 257.409 345.198 C 277.885 344.625 299.467 343.576 319.61 339.641 C 320.114 339.543 320.617 339.456 321.047 339.328 C 352.824 333.224 383.064 314.073 386.136 265.578 C 386.25 263.668 386.539 245.579 386.539 243.599 C 386.552 236.866 388.706 195.834 386.223 170.625 Z M 190.454 154.304 L 309.587 121.212 L 309.587 260.01 C 309.587 277.953 295.04 292.5 277.096 292.5 C 259.152 292.5 244.605 277.953 244.605 260.01 C 244.605 242.066 259.152 227.518 277.096 227.518 C 280.895 227.518 284.537 228.177 287.926 229.374 L 287.926 170.767 L 212.114 192.428 L 212.114 287.084 C 212.114 305.029 197.567 319.577 179.623 319.577 C 161.679 319.577 147.131 305.029 147.131 287.084 C 147.131 269.141 161.679 254.594 179.623 254.594 C 183.422 254.594 187.065 255.254 190.454 256.451 L 190.454 154.304 Z"/>
  </symbol>
  <use xlink:href="#logo-symbol-icon" style="color:#fff" />
</svg>
